<?xml version="1.0" standalone="no"?>
<!DOCTYPE svg PUBLIC "-//W3C//DTD SVG 20010904//EN"
 "http://www.w3.org/TR/2001/REC-SVG-20010904/DTD/svg10.dtd">
<svg version="1.0" xmlns="http://www.w3.org/2000/svg"
 width="512.000000pt" height="512.000000pt" viewBox="0 0 512.000000 512.000000"
 preserveAspectRatio="xMidYMid meet">

<g transform="translate(0.000000,512.000000) scale(0.100000,-0.100000)"
fill="#000000" stroke="none">
<path d="M43 4600 c-12 -5 -26 -18 -32 -29 -8 -14 -11 -450 -11 -1426 l0
-1406 25 -24 c23 -24 30 -25 150 -25 70 0 135 4 145 10 10 5 23 24 29 41 15
44 16 2773 1 2816 -6 17 -22 35 -36 42 -29 13 -239 14 -271 1z"/>
<path d="M780 4603 c-8 -3 -23 -12 -32 -21 -17 -14 -18 -95 -18 -1432 l0
-1417 23 -21 c22 -21 32 -22 226 -22 201 0 202 0 226 25 l25 24 0 1409 c0
1373 -1 1410 -19 1433 -19 24 -22 24 -218 26 -109 1 -205 -1 -213 -4z"/>
<path d="M1673 4598 c-12 -6 -26 -22 -32 -37 -8 -18 -11 -438 -9 -1429 l3
-1404 24 -19 c35 -28 168 -27 199 1 l22 21 0 1419 0 1419 -26 20 c-21 17 -40
21 -93 20 -36 0 -76 -5 -88 -11z"/>
<path d="M2223 4598 c-12 -6 -26 -22 -32 -37 -8 -18 -10 -246 -9 -744 l3 -718
68 85 c37 47 104 118 149 157 87 77 249 187 322 220 l46 20 0 488 c0 466 -1
490 -19 512 -19 24 -20 24 -263 26 -158 1 -251 -2 -265 -9z"/>
<path d="M3183 4600 c-12 -5 -26 -18 -32 -29 -7 -13 -11 -164 -11 -449 l0
-430 43 4 c23 3 57 7 75 10 l32 5 0 414 c0 282 -4 422 -11 438 -6 14 -22 30
-36 36 -28 13 -30 13 -60 1z"/>
<path d="M3533 4586 l-28 -24 0 -428 0 -429 90 -17 c50 -9 93 -17 98 -17 12
-1 9 865 -4 892 -23 51 -109 63 -156 23z"/>
<path d="M3894 4599 c-42 -21 -44 -40 -44 -518 l0 -457 58 -23 c73 -30 172
-83 242 -130 30 -21 61 -41 68 -45 9 -6 12 109 12 562 0 546 -1 571 -19 593
-18 23 -25 24 -158 26 -83 2 -147 -2 -159 -8z"/>
<path d="M3185 3535 c-744 -102 -1241 -830 -1066 -1561 101 -417 415 -766 817
-905 196 -68 448 -89 641 -55 115 21 283 79 382 132 l84 46 316 -316 c353
-351 364 -360 481 -359 108 0 193 50 246 145 39 71 41 178 5 248 -15 29 -132
155 -337 360 l-314 316 55 108 c99 195 139 362 138 576 -1 364 -140 686 -402
933 -202 189 -447 303 -726 336 -112 14 -204 12 -320 -4z m327 -399 c275 -53
493 -214 622 -458 141 -267 136 -577 -15 -845 -60 -107 -206 -254 -314 -317
-229 -133 -523 -156 -769 -60 -165 65 -349 224 -435 377 -237 422 -105 933
309 1192 165 103 408 148 602 111z"/>
</g>
</svg>
